solid Lod5-2
facet normal 0.987844444853372 -1.62465645832768e-015 0.155445658583096
outer loop
vertex 75.1710009012458 -51.6008416561135 9.0101933070798e-020
vertex 74.5050884899046 -51.8779245903976 4.0
vertex 75.1130748059372 -52.0408340327878 9.0101933070798e-020
endloop
endfacet
facet normal 0.954184461640053 -0.255672955926801 0.155445658583103
outer loop
vertex 74.5050884899046 -51.8779245903976 4.0
vertex 75.1710009012458 -51.6008416561135 9.0101933070798e-020
vertex 74.541567150242 -51.6008416561133 4.0
endloop
endfacet
facet normal -0.493922222426682 0.855498384230382 0.155445658582966
outer loop
vertex 72.9357177767473 -50.6737040880483 4.0
vertex 73.0310085245715 -49.9587677514221 9.0101933070798e-020
vertex 72.6210009012458 -50.12859846968 9.0101933070798e-020
endloop
endfacet
facet normal -0.25567295592685 0.954184461640062 0.15544565858297
outer loop
vertex 73.0310085245715 -49.9587677514221 9.0101933070798e-020
vertex 72.9357177767473 -50.6737040880483 4.0
vertex 73.1939179669614 -50.5667540674542 4.0
endloop
endfacet
facet normal 0.954184461640055 0.255672955926803 0.155445658583084
outer loop
vertex 75.1130748059372 -51.1608492794392 9.0101933070798e-020
vertex 74.541567150242 -51.6008416561133 4.0
vertex 75.1710009012458 -51.6008416561135 9.0101933070798e-020
endloop
endfacet
facet normal 0.987844444853373 4.85520187668029e-015 0.155445658583096
outer loop
vertex 74.541567150242 -51.6008416561133 4.0
vertex 75.1130748059372 -51.1608492794392 9.0101933070798e-020
vertex 74.5050884899046 -51.3237587218291 4.0
endloop
endfacet
facet normal -0.855498384230387 -0.493922222426664 0.155445658583
outer loop
vertex 72.5438633331805 -52.1361247806115 4.0
vertex 71.8289269965544 -52.0408340327878 9.0101933070798e-020
vertex 71.9987577148123 -52.4508416561135 9.0101933070798e-020
endloop
endfacet
facet normal -0.954184461640073 -0.255672955926798 0.155445658582986
outer loop
vertex 71.8289269965544 -52.0408340327878 9.0101933070798e-020
vertex 72.5438633331805 -52.1361247806115 4.0
vertex 72.4369133125866 -51.8779245903976 4.0
endloop
endfacet
facet normal 0.49392222242665 -0.855498384230379 0.155445658583088
outer loop
vertex 74.0062840257438 -52.5279792241785 4.0
vertex 73.9109932779201 -53.2429155608049 9.0101933070798e-020
vertex 74.3210009012458 -53.073084842547 9.0101933070798e-020
endloop
endfacet
facet normal 0.255672955926748 -0.954184461640071 0.155445658583082
outer loop
vertex 73.9109932779201 -53.2429155608049 9.0101933070798e-020
vertex 74.0062840257438 -52.5279792241785 4.0
vertex 73.7480838355297 -52.6349292447724 4.0
endloop
endfacet
facet normal 0.255672955926736 -0.954184461640074 0.155445658583082
outer loop
vertex 73.7480838355297 -52.6349292447724 4.0
vertex 73.4710009012458 -53.3008416561135 9.0101933070798e-020
vertex 73.9109932779201 -53.2429155608049 9.0101933070798e-020
endloop
endfacet
facet normal 1.3448545127268e-015 -0.987844444853376 0.155445658583074
outer loop
vertex 73.4710009012458 -53.3008416561135 9.0101933070798e-020
vertex 73.7480838355297 -52.6349292447724 4.0
vertex 73.4710009012456 -52.6714079051098 4.0
endloop
endfacet
facet normal 0.855498384230371 -0.493922222426659 0.155445658583107
outer loop
vertex 74.9432440876793 -52.4508416561135 9.0101933070798e-020
vertex 74.2280055556204 -52.3578463104882 4.0
vertex 74.6730824292629 -52.8029231841306 9.0101933070798e-020
endloop
endfacet
facet normal 0.698511505713309 -0.698511505713251 0.155445658583096
outer loop
vertex 74.2280055556204 -52.3578463104882 4.0
vertex 74.9432440876793 -52.4508416561135 9.0101933070798e-020
vertex 74.3981384693107 -52.1361247806115 4.0
endloop
endfacet
facet normal -0.0 -0.0 1.0
outer loop
vertex 72.4369133125866 -51.8779245903976 4.0
vertex 72.4369133125866 -51.3237587218291 4.0
vertex 72.4004346522491 -51.6008416561133 4.0
endloop
endfacet
facet normal -0.0 -0.0 1.0
outer loop
vertex 72.4369133125866 -51.3237587218291 4.0
vertex 72.4369133125866 -51.8779245903976 4.0
vertex 72.5438633331805 -52.1361247806115 4.0
endloop
endfacet
facet normal -0.0 -0.0 1.0
outer loop
vertex 72.4369133125866 -51.3237587218291 4.0
vertex 72.5438633331805 -52.1361247806115 4.0
vertex 72.5438633331805 -51.0655585316152 4.0
endloop
endfacet
facet normal -0.0 -0.0 1.0
outer loop
vertex 72.5438633331805 -51.0655585316152 4.0
vertex 72.5438633331805 -52.1361247806115 4.0
vertex 72.7139962468708 -52.3578463104882 4.0
endloop
endfacet
facet normal -0.0 -0.0 1.0
outer loop
vertex 72.5438633331805 -51.0655585316152 4.0
vertex 72.7139962468708 -52.3578463104882 4.0
vertex 72.7139962468708 -50.8438370017384 4.0
endloop
endfacet
facet normal -0.0 -0.0 1.0
outer loop
vertex 72.7139962468708 -50.8438370017384 4.0
vertex 72.7139962468708 -52.3578463104882 4.0
vertex 72.9357177767473 -52.5279792241785 4.0
endloop
endfacet
facet normal -0.0 -0.0 1.0
outer loop
vertex 72.7139962468708 -50.8438370017384 4.0
vertex 72.9357177767473 -52.5279792241785 4.0
vertex 72.9357177767473 -50.6737040880483 4.0
endloop
endfacet
facet normal -0.0 -0.0 1.0
outer loop
vertex 72.9357177767473 -50.6737040880483 4.0
vertex 72.9357177767473 -52.5279792241785 4.0
vertex 73.1939179669614 -52.6349292447724 4.0
endloop
endfacet
facet normal -0.0 -0.0 1.0
outer loop
vertex 72.9357177767473 -50.6737040880483 4.0
vertex 73.1939179669614 -52.6349292447724 4.0
vertex 73.1939179669614 -50.5667540674542 4.0
endloop
endfacet
facet normal -0.0 -0.0 1.0
outer loop
vertex 73.1939179669614 -50.5667540674542 4.0
vertex 73.1939179669614 -52.6349292447724 4.0
vertex 73.4710009012456 -52.6714079051098 4.0
endloop
endfacet
facet normal -0.0 -0.0 1.0
outer loop
vertex 73.1939179669614 -50.5667540674542 4.0
vertex 73.4710009012456 -52.6714079051098 4.0
vertex 73.4710009012456 -50.5302754071168 4.0
endloop
endfacet
facet normal -0.0 -0.0 1.0
outer loop
vertex 73.4710009012456 -50.5302754071168 4.0
vertex 73.4710009012456 -52.6714079051098 4.0
vertex 73.7480838355297 -52.6349292447724 4.0
endloop
endfacet
facet normal -0.0 -0.0 1.0
outer loop
vertex 73.4710009012456 -50.5302754071168 4.0
vertex 73.7480838355297 -52.6349292447724 4.0
vertex 73.7480838355297 -50.5667540674542 4.0
endloop
endfacet
facet normal -0.0 -0.0 1.0
outer loop
vertex 73.7480838355297 -50.5667540674542 4.0
vertex 73.7480838355297 -52.6349292447724 4.0
vertex 74.0062840257438 -52.5279792241785 4.0
endloop
endfacet
facet normal -0.0 -0.0 1.0
outer loop
vertex 73.7480838355297 -50.5667540674542 4.0
vertex 74.0062840257438 -52.5279792241785 4.0
vertex 74.0062840257438 -50.6737040880483 4.0
endloop
endfacet
facet normal -0.0 -0.0 1.0
outer loop
vertex 74.0062840257438 -50.6737040880483 4.0
vertex 74.0062840257438 -52.5279792241785 4.0
vertex 74.2280055556204 -52.3578463104882 4.0
endloop
endfacet
facet normal -0.0 -0.0 1.0
outer loop
vertex 74.0062840257438 -50.6737040880483 4.0
vertex 74.2280055556204 -52.3578463104882 4.0
vertex 74.2280055556204 -50.8438370017384 4.0
endloop
endfacet
facet normal -0.0 -0.0 1.0
outer loop
vertex 74.2280055556204 -50.8438370017384 4.0
vertex 74.2280055556204 -52.3578463104882 4.0
vertex 74.3981384693107 -52.1361247806115 4.0
endloop
endfacet
facet normal -0.0 -0.0 1.0
outer loop
vertex 74.2280055556204 -50.8438370017384 4.0
vertex 74.3981384693107 -52.1361247806115 4.0
vertex 74.3981384693107 -51.0655585316152 4.0
endloop
endfacet
facet normal -0.0 -0.0 1.0
outer loop
vertex 74.3981384693107 -51.0655585316152 4.0
vertex 74.3981384693107 -52.1361247806115 4.0
vertex 74.5050884899046 -51.8779245903976 4.0
endloop
endfacet
facet normal -0.0 -0.0 1.0
outer loop
vertex 74.3981384693107 -51.0655585316152 4.0
vertex 74.5050884899046 -51.8779245903976 4.0
vertex 74.5050884899046 -51.3237587218291 4.0
endloop
endfacet
facet normal -0.0 -0.0 1.0
outer loop
vertex 74.5050884899046 -51.3237587218291 4.0
vertex 74.5050884899046 -51.8779245903976 4.0
vertex 74.541567150242 -51.6008416561133 4.0
endloop
endfacet
facet normal -0.255672955926737 -0.954184461640078 0.155445658583052
outer loop
vertex 73.1939179669614 -52.6349292447724 4.0
vertex 72.6210009012458 -53.073084842547 9.0101933070798e-020
vertex 73.0310085245715 -53.2429155608049 9.0101933070798e-020
endloop
endfacet
facet normal -0.493922222426644 -0.855498384230393 0.155445658583029
outer loop
vertex 72.6210009012458 -53.073084842547 9.0101933070798e-020
vertex 73.1939179669614 -52.6349292447724 4.0
vertex 72.9357177767473 -52.5279792241785 4.0
endloop
endfacet
facet normal -0.855498384230394 0.493922222426664 0.155445658582958
outer loop
vertex 72.5438633331805 -51.0655585316152 4.0
vertex 71.8289269965544 -51.1608492794392 9.0101933070798e-020
vertex 72.4369133125866 -51.3237587218291 4.0
endloop
endfacet
facet normal -0.954184461640076 0.255672955926799 0.155445658582966
outer loop
vertex 71.8289269965544 -51.1608492794392 9.0101933070798e-020
vertex 72.5438633331805 -51.0655585316152 4.0
vertex 71.9987577148123 -50.7508416561135 9.0101933070798e-020
endloop
endfacet
facet normal -0.954184461640075 -0.255672955926791 0.155445658582986
outer loop
vertex 72.4369133125866 -51.8779245903976 4.0
vertex 71.7710009012458 -51.6008416561135 9.0101933070798e-020
vertex 71.8289269965544 -52.0408340327878 9.0101933070798e-020
endloop
endfacet
facet normal -0.987844444853392 -1.59757885068887e-015 0.155445658582974
outer loop
vertex 71.7710009012458 -51.6008416561135 9.0101933070798e-020
vertex 72.4369133125866 -51.8779245903976 4.0
vertex 72.4004346522491 -51.6008416561133 4.0
endloop
endfacet
facet normal 0.698511505713309 -0.698511505713251 0.155445658583096
outer loop
vertex 74.2280055556204 -52.3578463104882 4.0
vertex 74.3210009012458 -53.073084842547 9.0101933070798e-020
vertex 74.6730824292629 -52.8029231841306 9.0101933070798e-020
endloop
endfacet
facet normal 0.493922222426658 -0.855498384230375 0.155445658583088
outer loop
vertex 74.3210009012458 -53.073084842547 9.0101933070798e-020
vertex 74.2280055556204 -52.3578463104882 4.0
vertex 74.0062840257438 -52.5279792241785 4.0
endloop
endfacet
facet normal -0.987844444853392 4.88158884340146e-015 0.155445658582974
outer loop
vertex 72.4004346522491 -51.6008416561133 4.0
vertex 71.8289269965544 -51.1608492794392 9.0101933070798e-020
vertex 71.7710009012458 -51.6008416561135 9.0101933070798e-020
endloop
endfacet
facet normal -0.954184461640076 0.255672955926799 0.155445658582966
outer loop
vertex 71.8289269965544 -51.1608492794392 9.0101933070798e-020
vertex 72.4004346522491 -51.6008416561133 4.0
vertex 72.4369133125866 -51.3237587218291 4.0
endloop
endfacet
facet normal 0.255672955926855 0.954184461640055 0.155445658583
outer loop
vertex 73.7480838355297 -50.5667540674542 4.0
vertex 74.3210009012458 -50.12859846968 9.0101933070798e-020
vertex 73.9109932779201 -49.9587677514221 9.0101933070798e-020
endloop
endfacet
facet normal 0.49392222242669 0.855498384230367 0.155445658583025
outer loop
vertex 74.3210009012458 -50.12859846968 9.0101933070798e-020
vertex 73.7480838355297 -50.5667540674542 4.0
vertex 74.0062840257438 -50.6737040880483 4.0
endloop
endfacet
facet normal -0.493922222426651 -0.855498384230389 0.155445658583029
outer loop
vertex 72.9357177767473 -52.5279792241785 4.0
vertex 72.2689193732287 -52.8029231841306 9.0101933070798e-020
vertex 72.6210009012458 -53.073084842547 9.0101933070798e-020
endloop
endfacet
facet normal -0.698511505713315 -0.698511505713265 0.155445658583009
outer loop
vertex 72.2689193732287 -52.8029231841306 9.0101933070798e-020
vertex 72.9357177767473 -52.5279792241785 4.0
vertex 72.7139962468708 -52.3578463104882 4.0
endloop
endfacet
facet normal 0.954184461640053 -0.255672955926802 0.155445658583103
outer loop
vertex 75.1130748059372 -52.0408340327878 9.0101933070798e-020
vertex 74.3981384693107 -52.1361247806115 4.0
vertex 74.9432440876793 -52.4508416561135 9.0101933070798e-020
endloop
endfacet
facet normal 0.855498384230372 -0.493922222426656 0.155445658583107
outer loop
vertex 74.3981384693107 -52.1361247806115 4.0
vertex 75.1130748059372 -52.0408340327878 9.0101933070798e-020
vertex 74.5050884899046 -51.8779245903976 4.0
endloop
endfacet
facet normal 0.0 0.0 -1.0
outer loop
vertex 71.8289269965544 -51.1608492794392 9.0101933070798e-020
vertex 71.8289269965544 -52.0408340327878 9.0101933070798e-020
vertex 71.7710009012458 -51.6008416561135 9.0101933070798e-020
endloop
endfacet
facet normal 0.0 0.0 -1.0
outer loop
vertex 71.8289269965544 -52.0408340327878 9.0101933070798e-020
vertex 71.8289269965544 -51.1608492794392 9.0101933070798e-020
vertex 71.9987577148123 -50.7508416561135 9.0101933070798e-020
endloop
endfacet
facet normal 0.0 0.0 -1.0
outer loop
vertex 71.8289269965544 -52.0408340327878 9.0101933070798e-020
vertex 71.9987577148123 -50.7508416561135 9.0101933070798e-020
vertex 71.9987577148123 -52.4508416561135 9.0101933070798e-020
endloop
endfacet
facet normal 0.0 0.0 -1.0
outer loop
vertex 71.9987577148123 -52.4508416561135 9.0101933070798e-020
vertex 71.9987577148123 -50.7508416561135 9.0101933070798e-020
vertex 72.2689193732287 -50.3987601280964 9.0101933070798e-020
endloop
endfacet
facet normal 0.0 0.0 -1.0
outer loop
vertex 71.9987577148123 -52.4508416561135 9.0101933070798e-020
vertex 72.2689193732287 -50.3987601280964 9.0101933070798e-020
vertex 72.2689193732287 -52.8029231841306 9.0101933070798e-020
endloop
endfacet
facet normal 0.0 0.0 -1.0
outer loop
vertex 72.2689193732287 -52.8029231841306 9.0101933070798e-020
vertex 72.2689193732287 -50.3987601280964 9.0101933070798e-020
vertex 72.6210009012458 -50.12859846968 9.0101933070798e-020
endloop
endfacet
facet normal 0.0 0.0 -1.0
outer loop
vertex 72.2689193732287 -52.8029231841306 9.0101933070798e-020
vertex 72.6210009012458 -50.12859846968 9.0101933070798e-020
vertex 72.6210009012458 -53.073084842547 9.0101933070798e-020
endloop
endfacet
facet normal 0.0 0.0 -1.0
outer loop
vertex 72.6210009012458 -53.073084842547 9.0101933070798e-020
vertex 72.6210009012458 -50.12859846968 9.0101933070798e-020
vertex 73.0310085245715 -49.9587677514221 9.0101933070798e-020
endloop
endfacet
facet normal 0.0 0.0 -1.0
outer loop
vertex 72.6210009012458 -53.073084842547 9.0101933070798e-020
vertex 73.0310085245715 -49.9587677514221 9.0101933070798e-020
vertex 73.0310085245715 -53.2429155608049 9.0101933070798e-020
endloop
endfacet
facet normal 0.0 0.0 -1.0
outer loop
vertex 73.0310085245715 -53.2429155608049 9.0101933070798e-020
vertex 73.0310085245715 -49.9587677514221 9.0101933070798e-020
vertex 73.4710009012458 -49.9008416561135 9.0101933070798e-020
endloop
endfacet
facet normal 0.0 0.0 -1.0
outer loop
vertex 73.0310085245715 -53.2429155608049 9.0101933070798e-020
vertex 73.4710009012458 -49.9008416561135 9.0101933070798e-020
vertex 73.4710009012458 -53.3008416561135 9.0101933070798e-020
endloop
endfacet
facet normal 0.0 0.0 -1.0
outer loop
vertex 73.4710009012458 -53.3008416561135 9.0101933070798e-020
vertex 73.4710009012458 -49.9008416561135 9.0101933070798e-020
vertex 73.9109932779201 -49.9587677514221 9.0101933070798e-020
endloop
endfacet
facet normal 0.0 0.0 -1.0
outer loop
vertex 73.4710009012458 -53.3008416561135 9.0101933070798e-020
vertex 73.9109932779201 -49.9587677514221 9.0101933070798e-020
vertex 73.9109932779201 -53.2429155608049 9.0101933070798e-020
endloop
endfacet
facet normal 0.0 0.0 -1.0
outer loop
vertex 73.9109932779201 -53.2429155608049 9.0101933070798e-020
vertex 73.9109932779201 -49.9587677514221 9.0101933070798e-020
vertex 74.3210009012458 -50.12859846968 9.0101933070798e-020
endloop
endfacet
facet normal 0.0 0.0 -1.0
outer loop
vertex 73.9109932779201 -53.2429155608049 9.0101933070798e-020
vertex 74.3210009012458 -50.12859846968 9.0101933070798e-020
vertex 74.3210009012458 -53.073084842547 9.0101933070798e-020
endloop
endfacet
facet normal 0.0 0.0 -1.0
outer loop
vertex 74.3210009012458 -53.073084842547 9.0101933070798e-020
vertex 74.3210009012458 -50.12859846968 9.0101933070798e-020
vertex 74.6730824292629 -50.3987601280964 9.0101933070798e-020
endloop
endfacet
facet normal 0.0 0.0 -1.0
outer loop
vertex 74.3210009012458 -53.073084842547 9.0101933070798e-020
vertex 74.6730824292629 -50.3987601280964 9.0101933070798e-020
vertex 74.6730824292629 -52.8029231841306 9.0101933070798e-020
endloop
endfacet
facet normal 0.0 0.0 -1.0
outer loop
vertex 74.6730824292629 -52.8029231841306 9.0101933070798e-020
vertex 74.6730824292629 -50.3987601280964 9.0101933070798e-020
vertex 74.9432440876793 -50.7508416561135 9.0101933070798e-020
endloop
endfacet
facet normal 0.0 0.0 -1.0
outer loop
vertex 74.6730824292629 -52.8029231841306 9.0101933070798e-020
vertex 74.9432440876793 -50.7508416561135 9.0101933070798e-020
vertex 74.9432440876793 -52.4508416561135 9.0101933070798e-020
endloop
endfacet
facet normal 0.0 0.0 -1.0
outer loop
vertex 74.9432440876793 -52.4508416561135 9.0101933070798e-020
vertex 74.9432440876793 -50.7508416561135 9.0101933070798e-020
vertex 75.1130748059372 -51.1608492794392 9.0101933070798e-020
endloop
endfacet
facet normal 0.0 0.0 -1.0
outer loop
vertex 74.9432440876793 -52.4508416561135 9.0101933070798e-020
vertex 75.1130748059372 -51.1608492794392 9.0101933070798e-020
vertex 75.1130748059372 -52.0408340327878 9.0101933070798e-020
endloop
endfacet
facet normal 0.0 0.0 -1.0
outer loop
vertex 75.1130748059372 -52.0408340327878 9.0101933070798e-020
vertex 75.1130748059372 -51.1608492794392 9.0101933070798e-020
vertex 75.1710009012458 -51.6008416561135 9.0101933070798e-020
endloop
endfacet
facet normal 0.493922222426681 0.855498384230372 0.155445658583025
outer loop
vertex 74.0062840257438 -50.6737040880483 4.0
vertex 74.6730824292629 -50.3987601280964 9.0101933070798e-020
vertex 74.3210009012458 -50.12859846968 9.0101933070798e-020
endloop
endfacet
facet normal 0.698511505713281 0.698511505713291 0.155445658583044
outer loop
vertex 74.6730824292629 -50.3987601280964 9.0101933070798e-020
vertex 74.0062840257438 -50.6737040880483 4.0
vertex 74.2280055556204 -50.8438370017384 4.0
endloop
endfacet
facet normal -8.89240778500684e-015 -0.987844444853376 0.155445658583074
outer loop
vertex 73.4710009012456 -52.6714079051098 4.0
vertex 73.0310085245715 -53.2429155608049 9.0101933070798e-020
vertex 73.4710009012458 -53.3008416561135 9.0101933070798e-020
endloop
endfacet
facet normal -0.255672955926732 -0.95418446164008 0.155445658583052
outer loop
vertex 73.0310085245715 -53.2429155608049 9.0101933070798e-020
vertex 73.4710009012456 -52.6714079051098 4.0
vertex 73.1939179669614 -52.6349292447724 4.0
endloop
endfacet
facet normal -8.90999909615435e-015 0.987844444853392 0.155445658582974
outer loop
vertex 73.4710009012456 -50.5302754071168 4.0
vertex 73.9109932779201 -49.9587677514221 9.0101933070798e-020
vertex 73.4710009012458 -49.9008416561135 9.0101933070798e-020
endloop
endfacet
facet normal 0.255672955926865 0.954184461640052 0.155445658583
outer loop
vertex 73.9109932779201 -49.9587677514221 9.0101933070798e-020
vertex 73.4710009012456 -50.5302754071168 4.0
vertex 73.7480838355297 -50.5667540674542 4.0
endloop
endfacet
facet normal -0.255672955926855 0.95418446164006 0.15544565858297
outer loop
vertex 73.1939179669614 -50.5667540674542 4.0
vertex 73.4710009012458 -49.9008416561135 9.0101933070798e-020
vertex 73.0310085245715 -49.9587677514221 9.0101933070798e-020
endloop
endfacet
facet normal 1.317776905088e-015 0.987844444853392 0.155445658582974
outer loop
vertex 73.4710009012458 -49.9008416561135 9.0101933070798e-020
vertex 73.1939179669614 -50.5667540674542 4.0
vertex 73.4710009012456 -50.5302754071168 4.0
endloop
endfacet
facet normal 0.855498384230384 0.493922222426649 0.155445658583065
outer loop
vertex 74.9432440876793 -50.7508416561135 9.0101933070798e-020
vertex 74.2280055556204 -50.8438370017384 4.0
vertex 74.3981384693107 -51.0655585316152 4.0
endloop
endfacet
facet normal 0.69851150571327 0.698511505713302 0.155445658583044
outer loop
vertex 74.2280055556204 -50.8438370017384 4.0
vertex 74.9432440876793 -50.7508416561135 9.0101933070798e-020
vertex 74.6730824292629 -50.3987601280964 9.0101933070798e-020
endloop
endfacet
facet normal 0.954184461640055 0.255672955926803 0.155445658583084
outer loop
vertex 75.1130748059372 -51.1608492794392 9.0101933070798e-020
vertex 74.3981384693107 -51.0655585316152 4.0
vertex 74.5050884899046 -51.3237587218291 4.0
endloop
endfacet
facet normal 0.85549838423038 0.493922222426656 0.155445658583065
outer loop
vertex 74.3981384693107 -51.0655585316152 4.0
vertex 75.1130748059372 -51.1608492794392 9.0101933070798e-020
vertex 74.9432440876793 -50.7508416561135 9.0101933070798e-020
endloop
endfacet
facet normal -0.698511505713285 0.698511505713307 0.155445658582958
outer loop
vertex 72.7139962468708 -50.8438370017384 4.0
vertex 72.6210009012458 -50.12859846968 9.0101933070798e-020
vertex 72.2689193732287 -50.3987601280964 9.0101933070798e-020
endloop
endfacet
facet normal -0.493922222426676 0.855498384230386 0.155445658582966
outer loop
vertex 72.6210009012458 -50.12859846968 9.0101933070798e-020
vertex 72.7139962468708 -50.8438370017384 4.0
vertex 72.9357177767473 -50.6737040880483 4.0
endloop
endfacet
facet normal -0.698511505713324 -0.698511505713256 0.155445658583009
outer loop
vertex 72.7139962468708 -52.3578463104882 4.0
vertex 71.9987577148123 -52.4508416561135 9.0101933070798e-020
vertex 72.2689193732287 -52.8029231841306 9.0101933070798e-020
endloop
endfacet
facet normal -0.85549838423038 -0.493922222426676 0.155445658583
outer loop
vertex 71.9987577148123 -52.4508416561135 9.0101933070798e-020
vertex 72.7139962468708 -52.3578463104882 4.0
vertex 72.5438633331805 -52.1361247806115 4.0
endloop
endfacet
facet normal -0.698511505713285 0.698511505713307 0.155445658582958
outer loop
vertex 72.7139962468708 -50.8438370017384 4.0
vertex 71.9987577148123 -50.7508416561135 9.0101933070798e-020
vertex 72.5438633331805 -51.0655585316152 4.0
endloop
endfacet
facet normal -0.855498384230393 0.493922222426666 0.155445658582958
outer loop
vertex 71.9987577148123 -50.7508416561135 9.0101933070798e-020
vertex 72.7139962468708 -50.8438370017384 4.0
vertex 72.2689193732287 -50.3987601280964 9.0101933070798e-020
endloop
endfacet
endsolid Lod5-2
