solid Lod5
facet normal -0.936602148665008 0.313702236705062 0.156100358110834
outer loop
vertex 64.7349364905389 -61.4999999999994 0.75
vertex 65.4 -62.4999999999993 6.75
vertex 65.7349364905389 -61.4999999999994 6.75
endloop
endfacet
facet normal -0.936602148665017 -0.313702236705037 0.156100358110836
outer loop
vertex 65.4 -62.4999999999993 6.75
vertex 64.7349364905389 -63.4999999999993 0.75
vertex 65.7349364905389 -63.4999999999993 6.75
endloop
endfacet
facet normal -0.0 0.683941128881331 0.729537204140084
outer loop
vertex 69.8000000000001 -59.7999999999998 0.75
vertex 64.0 -58.9999999999998 -1.25024445961241e-019
vertex 64.0 -59.7999999999998 0.75
endloop
endfacet
facet normal -0.0 0.683941128881331 0.729537204140084
outer loop
vertex 64.0 -58.9999999999998 -1.25024445961241e-019
vertex 69.8000000000001 -59.7999999999998 0.75
vertex 69.8000000000001 -58.9999999999998 -1.25024445961241e-019
endloop
endfacet
facet normal 1.0 -0.0 -0.0
outer loop
vertex 69.8000000000001 -58.9999999999998 -1.25024445961241e-019
vertex 69.8000000000001 -65.1999999999998 0.75
vertex 69.8000000000001 -65.9999999999998 -1.25024445961241e-019
endloop
endfacet
facet normal 1.0 -0.0 -0.0
outer loop
vertex 69.8000000000001 -65.1999999999998 0.75
vertex 69.8000000000001 -58.9999999999998 -1.25024445961241e-019
vertex 69.8000000000001 -59.7999999999998 0.75
endloop
endfacet
facet normal -0.0 -0.0 1.0
outer loop
vertex 64.0 -65.1999999999998 0.75
vertex 64.4 -62.4999999999993 0.75
vertex 64.0 -59.7999999999998 0.75
endloop
endfacet
facet normal -0.0 -0.0 1.0
outer loop
vertex 64.4 -62.4999999999993 0.75
vertex 64.0 -65.1999999999998 0.75
vertex 64.7349364905389 -63.4999999999993 0.75
endloop
endfacet
facet normal -0.0 -0.0 1.0
outer loop
vertex 64.7349364905389 -63.4999999999993 0.75
vertex 64.0 -65.1999999999998 0.75
vertex 65.65 -64.2320508075682 0.75
endloop
endfacet
facet normal -0.0 -0.0 1.0
outer loop
vertex 65.65 -64.2320508075682 0.75
vertex 64.0 -65.1999999999998 0.75
vertex 69.8000000000001 -65.1999999999998 0.75
endloop
endfacet
facet normal -0.0 -0.0 1.0
outer loop
vertex 65.65 -64.2320508075682 0.75
vertex 69.8000000000001 -65.1999999999998 0.75
vertex 66.9 -64.4999999999993 0.75
endloop
endfacet
facet normal -0.0 -0.0 1.0
outer loop
vertex 66.9 -64.4999999999993 0.75
vertex 69.8000000000001 -65.1999999999998 0.75
vertex 68.1499999999999 -64.2320508075682 0.75
endloop
endfacet
facet normal -0.0 -0.0 1.0
outer loop
vertex 68.1499999999999 -64.2320508075682 0.75
vertex 69.8000000000001 -65.1999999999998 0.75
vertex 69.0650635094611 -63.4999999999993 0.75
endloop
endfacet
facet normal -0.0 -0.0 1.0
outer loop
vertex 69.0650635094611 -63.4999999999993 0.75
vertex 69.8000000000001 -65.1999999999998 0.75
vertex 69.4 -62.4999999999993 0.75
endloop
endfacet
facet normal -0.0 -0.0 1.0
outer loop
vertex 64.0 -59.7999999999998 0.75
vertex 65.65 -60.7679491924305 0.75
vertex 69.8000000000001 -59.7999999999998 0.75
endloop
endfacet
facet normal -0.0 -0.0 1.0
outer loop
vertex 65.65 -60.7679491924305 0.75
vertex 64.0 -59.7999999999998 0.75
vertex 64.7349364905389 -61.4999999999994 0.75
endloop
endfacet
facet normal -0.0 -0.0 1.0
outer loop
vertex 64.7349364905389 -61.4999999999994 0.75
vertex 64.0 -59.7999999999998 0.75
vertex 64.4 -62.4999999999993 0.75
endloop
endfacet
facet normal -0.0 -0.0 1.0
outer loop
vertex 69.8000000000001 -59.7999999999998 0.75
vertex 65.65 -60.7679491924305 0.75
vertex 66.9 -60.4999999999993 0.75
endloop
endfacet
facet normal -0.0 -0.0 1.0
outer loop
vertex 69.8000000000001 -59.7999999999998 0.75
vertex 66.9 -60.4999999999993 0.75
vertex 68.1499999999999 -60.7679491924305 0.75
endloop
endfacet
facet normal -0.0 -0.0 1.0
outer loop
vertex 69.8000000000001 -59.7999999999998 0.75
vertex 68.1499999999999 -60.7679491924305 0.75
vertex 69.0650635094611 -61.4999999999994 0.75
endloop
endfacet
facet normal -0.0 -0.0 1.0
outer loop
vertex 69.8000000000001 -59.7999999999998 0.75
vertex 69.0650635094611 -61.4999999999994 0.75
vertex 69.4 -62.4999999999993 0.75
endloop
endfacet
facet normal -0.0 -0.0 1.0
outer loop
vertex 69.8000000000001 -59.7999999999998 0.75
vertex 69.4 -62.4999999999993 0.75
vertex 69.8000000000001 -65.1999999999998 0.75
endloop
endfacet
facet normal 0.621336447694214 -0.776670559617733 -0.103556074615702
outer loop
vertex 69.15 -64.2320508075682 6.75
vertex 69.0650635094611 -63.4999999999993 0.75
vertex 70.0650635094611 -63.4999999999993 6.75
endloop
endfacet
facet normal -1.0 0.0 0.0
outer loop
vertex 64.0 -65.1999999999998 0.75
vertex 64.0 -58.9999999999998 -1.25024445961241e-019
vertex 64.0 -65.9999999999998 -1.25024445961241e-019
endloop
endfacet
facet normal -1.0 0.0 0.0
outer loop
vertex 64.0 -58.9999999999998 -1.25024445961241e-019
vertex 64.0 -65.1999999999998 0.75
vertex 64.0 -59.7999999999998 0.75
endloop
endfacet
facet normal 0.621336447694173 0.776670559617767 -0.103556074615695
outer loop
vertex 70.0650635094611 -61.4999999999994 6.75
vertex 69.0650635094611 -61.4999999999994 0.75
vertex 69.15 -60.7679491924305 6.75
endloop
endfacet
facet normal -0.0 -0.683941128881331 0.729537204140084
outer loop
vertex 69.8000000000001 -65.9999999999998 -1.25024445961241e-019
vertex 64.0 -65.1999999999998 0.75
vertex 64.0 -65.9999999999998 -1.25024445961241e-019
endloop
endfacet
facet normal -0.0 -0.683941128881331 0.729537204140084
outer loop
vertex 64.0 -65.1999999999998 0.75
vertex 69.8000000000001 -65.9999999999998 -1.25024445961241e-019
vertex 69.8000000000001 -65.1999999999998 0.75
endloop
endfacet
facet normal -0.0 -0.0 1.0
outer loop
vertex 65.3332157766354 -63.082186035636 0.75
vertex 65.3332157766354 -61.9178139643628 0.75
vertex 65.1382204290185 -62.4999999999993 0.75
endloop
endfacet
facet normal -0.0 -0.0 1.0
outer loop
vertex 65.3332157766354 -61.9178139643628 0.75
vertex 65.3332157766354 -63.082186035636 0.75
vertex 65.9582701632188 -61.4177704550961 0.75
endloop
endfacet
facet normal -0.0 -0.0 1.0
outer loop
vertex 65.9582701632188 -61.4177704550961 0.75
vertex 65.3332157766354 -63.082186035636 0.75
vertex 65.9582701632188 -63.5822295449026 0.75
endloop
endfacet
facet normal -0.0 -0.0 1.0
outer loop
vertex 65.9582701632188 -61.4177704550961 0.75
vertex 65.9582701632188 -63.5822295449026 0.75
vertex 66.9 -63.7840981443057 0.75
endloop
endfacet
facet normal -0.0 -0.0 1.0
outer loop
vertex 65.9582701632188 -61.4177704550961 0.75
vertex 66.9 -63.7840981443057 0.75
vertex 66.9 -61.2159018556929 0.75
endloop
endfacet
facet normal -0.0 -0.0 1.0
outer loop
vertex 66.9 -61.2159018556929 0.75
vertex 66.9 -63.7840981443057 0.75
vertex 67.8417298367812 -63.5822295449026 0.75
endloop
endfacet
facet normal -0.0 -0.0 1.0
outer loop
vertex 66.9 -61.2159018556929 0.75
vertex 67.8417298367812 -63.5822295449026 0.75
vertex 67.8417298367812 -61.4177704550961 0.75
endloop
endfacet
facet normal -0.0 -0.0 1.0
outer loop
vertex 67.8417298367812 -61.4177704550961 0.75
vertex 67.8417298367812 -63.5822295449026 0.75
vertex 68.4667842233645 -61.9178139643628 0.75
endloop
endfacet
facet normal -0.0 -0.0 1.0
outer loop
vertex 68.4667842233645 -61.9178139643628 0.75
vertex 67.8417298367812 -63.5822295449026 0.75
vertex 68.4667842233645 -63.082186035636 0.75
endloop
endfacet
facet normal -0.0 -0.0 1.0
outer loop
vertex 68.4667842233645 -61.9178139643628 0.75
vertex 68.4667842233645 -63.082186035636 0.75
vertex 68.6617795709814 -62.4999999999993 0.75
endloop
endfacet
facet normal 0.209470160329036 -0.977191601271981 -0.0349116933881718
outer loop
vertex 67.9 -64.4999999999993 6.75
vertex 66.9 -64.4999999999993 0.75
vertex 69.15 -64.2320508075682 6.75
endloop
endfacet
facet normal -0.0 -0.0 1.0
outer loop
vertex 65.7349364905389 -63.4999999999993 6.75
vertex 65.7349364905389 -61.4999999999994 6.75
vertex 65.4 -62.4999999999993 6.75
endloop
endfacet
facet normal -0.0 -0.0 1.0
outer loop
vertex 65.7349364905389 -61.4999999999994 6.75
vertex 65.7349364905389 -63.4999999999993 6.75
vertex 66.65 -64.2320508075682 6.75
endloop
endfacet
facet normal -0.0 -0.0 1.0
outer loop
vertex 65.7349364905389 -61.4999999999994 6.75
vertex 66.65 -64.2320508075682 6.75
vertex 66.1382204290185 -62.4999999999993 6.75
endloop
endfacet
facet normal -0.0 -0.0 1.0
outer loop
vertex 66.1382204290185 -62.4999999999993 6.75
vertex 66.65 -64.2320508075682 6.75
vertex 66.3332157766354 -63.082186035636 6.75
endloop
endfacet
facet normal -0.0 -0.0 1.0
outer loop
vertex 66.3332157766354 -63.082186035636 6.75
vertex 66.65 -64.2320508075682 6.75
vertex 66.9582701632188 -63.5822295449026 6.75
endloop
endfacet
facet normal -0.0 -0.0 1.0
outer loop
vertex 66.9582701632188 -63.5822295449026 6.75
vertex 66.65 -64.2320508075682 6.75
vertex 67.9 -64.4999999999993 6.75
endloop
endfacet
facet normal -0.0 -0.0 1.0
outer loop
vertex 66.9582701632188 -63.5822295449026 6.75
vertex 67.9 -64.4999999999993 6.75
vertex 67.9 -63.7840981443057 6.75
endloop
endfacet
facet normal -0.0 -0.0 1.0
outer loop
vertex 67.9 -63.7840981443057 6.75
vertex 67.9 -64.4999999999993 6.75
vertex 68.8417298367812 -63.5822295449026 6.75
endloop
endfacet
facet normal -0.0 -0.0 1.0
outer loop
vertex 68.8417298367812 -63.5822295449026 6.75
vertex 67.9 -64.4999999999993 6.75
vertex 69.15 -64.2320508075682 6.75
endloop
endfacet
facet normal -0.0 -0.0 1.0
outer loop
vertex 68.8417298367812 -63.5822295449026 6.75
vertex 69.15 -64.2320508075682 6.75
vertex 69.4667842233645 -63.082186035636 6.75
endloop
endfacet
facet normal -0.0 -0.0 1.0
outer loop
vertex 69.4667842233645 -63.082186035636 6.75
vertex 69.15 -64.2320508075682 6.75
vertex 70.0650635094611 -63.4999999999993 6.75
endloop
endfacet
facet normal -0.0 -0.0 1.0
outer loop
vertex 69.4667842233645 -63.082186035636 6.75
vertex 70.0650635094611 -63.4999999999993 6.75
vertex 69.6617795709814 -62.4999999999993 6.75
endloop
endfacet
facet normal -0.0 -0.0 1.0
outer loop
vertex 66.1382204290185 -62.4999999999993 6.75
vertex 66.65 -60.7679491924305 6.75
vertex 65.7349364905389 -61.4999999999994 6.75
endloop
endfacet
facet normal -0.0 -0.0 1.0
outer loop
vertex 66.65 -60.7679491924305 6.75
vertex 66.1382204290185 -62.4999999999993 6.75
vertex 66.3332157766354 -61.9178139643628 6.75
endloop
endfacet
facet normal -0.0 -0.0 1.0
outer loop
vertex 66.65 -60.7679491924305 6.75
vertex 66.3332157766354 -61.9178139643628 6.75
vertex 66.9582701632188 -61.4177704550961 6.75
endloop
endfacet
facet normal -0.0 -0.0 1.0
outer loop
vertex 66.65 -60.7679491924305 6.75
vertex 66.9582701632188 -61.4177704550961 6.75
vertex 67.9 -60.4999999999993 6.75
endloop
endfacet
facet normal -0.0 -0.0 1.0
outer loop
vertex 67.9 -60.4999999999993 6.75
vertex 66.9582701632188 -61.4177704550961 6.75
vertex 67.9 -61.2159018556929 6.75
endloop
endfacet
facet normal -0.0 -0.0 1.0
outer loop
vertex 67.9 -60.4999999999993 6.75
vertex 67.9 -61.2159018556929 6.75
vertex 68.8417298367812 -61.4177704550961 6.75
endloop
endfacet
facet normal -0.0 -0.0 1.0
outer loop
vertex 67.9 -60.4999999999993 6.75
vertex 68.8417298367812 -61.4177704550961 6.75
vertex 69.15 -60.7679491924305 6.75
endloop
endfacet
facet normal -0.0 -0.0 1.0
outer loop
vertex 69.15 -60.7679491924305 6.75
vertex 68.8417298367812 -61.4177704550961 6.75
vertex 69.4667842233645 -61.9178139643628 6.75
endloop
endfacet
facet normal -0.0 -0.0 1.0
outer loop
vertex 69.15 -60.7679491924305 6.75
vertex 69.4667842233645 -61.9178139643628 6.75
vertex 70.0650635094611 -61.4999999999994 6.75
endloop
endfacet
facet normal -0.0 -0.0 1.0
outer loop
vertex 70.0650635094611 -61.4999999999994 6.75
vertex 69.4667842233645 -61.9178139643628 6.75
vertex 69.6617795709814 -62.4999999999993 6.75
endloop
endfacet
facet normal -0.0 -0.0 1.0
outer loop
vertex 70.0650635094611 -61.4999999999994 6.75
vertex 69.6617795709814 -62.4999999999993 6.75
vertex 70.0650635094611 -63.4999999999993 6.75
endloop
endfacet
facet normal -0.0 -0.0 1.0
outer loop
vertex 70.0650635094611 -61.4999999999994 6.75
vertex 70.0650635094611 -63.4999999999993 6.75
vertex 70.4 -62.4999999999993 6.75
endloop
endfacet
facet normal 0.93660214866501 -0.313702236705056 -0.156100358110835
outer loop
vertex 70.4 -62.4999999999993 6.75
vertex 70.0650635094611 -63.4999999999993 6.75
vertex 69.0650635094611 -63.4999999999993 0.75
endloop
endfacet
facet normal 0.936602148665002 0.313702236705082 -0.156100358110833
outer loop
vertex 70.0650635094611 -61.4999999999994 6.75
vertex 70.4 -62.4999999999993 6.75
vertex 69.0650635094611 -61.4999999999994 0.75
endloop
endfacet
facet normal 0.209470160329154 0.977191601271955 -0.0349116933881915
outer loop
vertex 69.15 -60.7679491924305 6.75
vertex 66.9 -60.4999999999993 0.75
vertex 67.9 -60.4999999999993 6.75
endloop
endfacet
facet normal -0.209470160329143 0.977191601271957 0.0349116933881896
outer loop
vertex 67.9 -60.4999999999993 6.75
vertex 66.9 -60.4999999999993 0.75
vertex 66.65 -60.7679491924305 6.75
endloop
endfacet
facet normal -0.621336447694173 0.776670559617767 0.103556074615695
outer loop
vertex 66.65 -60.7679491924305 6.75
vertex 64.7349364905389 -61.4999999999994 0.75
vertex 65.7349364905389 -61.4999999999994 6.75
endloop
endfacet
facet normal -0.209470160329025 -0.977191601271983 0.0349116933881708
outer loop
vertex 66.65 -64.2320508075682 6.75
vertex 65.65 -64.2320508075682 0.75
vertex 66.9 -64.4999999999993 0.75
endloop
endfacet
facet normal -0.936602148665016 0.313702236705037 0.156100358110839
outer loop
vertex 68.6617795709814 -62.4999999999993 0.75
vertex 68.4667842233645 -63.082186035636 0.75
vertex 69.6617795709814 -62.4999999999993 6.75
endloop
endfacet
facet normal -0.209470160329151 -0.977191601271956 0.0349116933881919
outer loop
vertex 68.8417298367812 -61.4177704550961 6.75
vertex 66.9 -61.2159018556929 0.75
vertex 67.8417298367812 -61.4177704550961 0.75
endloop
endfacet
facet normal 0.209470160329043 -0.977191601271979 -0.0349116933881745
outer loop
vertex 69.15 -64.2320508075682 6.75
vertex 66.9 -64.4999999999993 0.75
vertex 68.1499999999999 -64.2320508075682 0.75
endloop
endfacet
facet normal -0.621336447694194 -0.776670559617749 0.103556074615701
outer loop
vertex 68.8417298367812 -61.4177704550961 6.75
vertex 68.4667842233645 -61.9178139643628 0.75
vertex 69.4667842233645 -61.9178139643628 6.75
endloop
endfacet
facet normal 0.621336447694194 -0.776670559617749 -0.103556074615699
outer loop
vertex 66.9582701632188 -61.4177704550961 6.75
vertex 65.3332157766354 -61.9178139643628 0.75
vertex 65.9582701632188 -61.4177704550961 0.75
endloop
endfacet
facet normal 0.62133644769419 0.776670559617753 -0.103556074615698
outer loop
vertex 66.9582701632188 -63.5822295449026 6.75
vertex 65.9582701632188 -63.5822295449026 0.75
vertex 65.3332157766354 -63.082186035636 0.75
endloop
endfacet
facet normal -0.621336447694187 0.776670559617755 0.1035560746157
outer loop
vertex 69.4667842233645 -63.082186035636 6.75
vertex 68.4667842233645 -63.082186035636 0.75
vertex 68.8417298367812 -63.5822295449026 6.75
endloop
endfacet
facet normal -0.209470160329139 0.977191601271958 0.0349116933881898
outer loop
vertex 66.65 -60.7679491924305 6.75
vertex 66.9 -60.4999999999993 0.75
vertex 65.65 -60.7679491924305 0.75
endloop
endfacet
facet normal 0.936602148665002 0.313702236705082 -0.156100358110833
outer loop
vertex 69.0650635094611 -61.4999999999994 0.75
vertex 70.4 -62.4999999999993 6.75
vertex 69.4 -62.4999999999993 0.75
endloop
endfacet
facet normal 0.621336447694204 -0.776670559617741 -0.103556074615703
outer loop
vertex 69.15 -64.2320508075682 6.75
vertex 68.1499999999999 -64.2320508075682 0.75
vertex 69.0650635094611 -63.4999999999993 0.75
endloop
endfacet
facet normal 0.93660214866501 -0.313702236705056 -0.156100358110835
outer loop
vertex 70.4 -62.4999999999993 6.75
vertex 69.0650635094611 -63.4999999999993 0.75
vertex 69.4 -62.4999999999993 0.75
endloop
endfacet
facet normal 0.621336447694164 0.776670559617774 -0.103556074615696
outer loop
vertex 69.15 -60.7679491924305 6.75
vertex 69.0650635094611 -61.4999999999994 0.75
vertex 68.1499999999999 -60.7679491924305 0.75
endloop
endfacet
facet normal -0.621336447694201 0.776670559617744 0.1035560746157
outer loop
vertex 68.8417298367812 -63.5822295449026 6.75
vertex 68.4667842233645 -63.082186035636 0.75
vertex 67.8417298367812 -63.5822295449026 0.75
endloop
endfacet
facet normal -0.621336447694173 0.776670559617766 0.103556074615695
outer loop
vertex 66.65 -60.7679491924305 6.75
vertex 65.65 -60.7679491924305 0.75
vertex 64.7349364905389 -61.4999999999994 0.75
endloop
endfacet
facet normal -0.936602148664984 -0.313702236705136 0.156100358110834
outer loop
vertex 68.4667842233645 -61.9178139643628 0.75
vertex 68.6617795709814 -62.4999999999993 0.75
vertex 69.6617795709814 -62.4999999999993 6.75
endloop
endfacet
facet normal -0.936602148665008 0.313702236705062 0.156100358110834
outer loop
vertex 64.7349364905389 -61.4999999999994 0.75
vertex 64.4 -62.4999999999993 0.75
vertex 65.4 -62.4999999999993 6.75
endloop
endfacet
facet normal 0.209470160329161 0.977191601271953 -0.0349116933881943
outer loop
vertex 69.15 -60.7679491924305 6.75
vertex 68.1499999999999 -60.7679491924305 0.75
vertex 66.9 -60.4999999999993 0.75
endloop
endfacet
facet normal -0.621336447694204 -0.776670559617741 0.103556074615701
outer loop
vertex 66.65 -64.2320508075682 6.75
vertex 64.7349364905389 -63.4999999999993 0.75
vertex 65.65 -64.2320508075682 0.75
endloop
endfacet
facet normal 0.936602148665017 0.313702236705037 -0.156100358110836
outer loop
vertex 66.1382204290185 -62.4999999999993 6.75
vertex 65.3332157766354 -63.082186035636 0.75
vertex 65.1382204290185 -62.4999999999993 0.75
endloop
endfacet
facet normal -0.20947016032906 0.977191601271976 0.0349116933881758
outer loop
vertex 68.8417298367812 -63.5822295449026 6.75
vertex 66.9 -63.7840981443057 0.75
vertex 67.9 -63.7840981443057 6.75
endloop
endfacet
facet normal 0.936602148664995 -0.313702236705103 -0.156100358110832
outer loop
vertex 65.3332157766354 -61.9178139643628 0.75
vertex 66.1382204290185 -62.4999999999993 6.75
vertex 65.1382204290185 -62.4999999999993 0.75
endloop
endfacet
facet normal -0.936602148665017 -0.313702236705037 0.156100358110836
outer loop
vertex 64.4 -62.4999999999993 0.75
vertex 64.7349364905389 -63.4999999999993 0.75
vertex 65.4 -62.4999999999993 6.75
endloop
endfacet
facet normal -0.209470160329065 0.977191601271975 0.0349116933881774
outer loop
vertex 68.8417298367812 -63.5822295449026 6.75
vertex 67.8417298367812 -63.5822295449026 0.75
vertex 66.9 -63.7840981443057 0.75
endloop
endfacet
facet normal -0.209470160329029 -0.977191601271983 0.0349116933881706
outer loop
vertex 66.65 -64.2320508075682 6.75
vertex 66.9 -64.4999999999993 0.75
vertex 67.9 -64.4999999999993 6.75
endloop
endfacet
facet normal 0.209470160329048 0.977191601271978 -0.0349116933881745
outer loop
vertex 66.9582701632188 -63.5822295449026 6.75
vertex 66.9 -63.7840981443057 0.75
vertex 65.9582701632188 -63.5822295449026 0.75
endloop
endfacet
facet normal 0.209470160329127 -0.977191601271961 -0.0349116933881878
outer loop
vertex 66.9582701632188 -61.4177704550961 6.75
vertex 65.9582701632188 -61.4177704550961 0.75
vertex 66.9 -61.2159018556929 0.75
endloop
endfacet
facet normal -0.621336447694207 -0.776670559617738 0.103556074615701
outer loop
vertex 68.8417298367812 -61.4177704550961 6.75
vertex 67.8417298367812 -61.4177704550961 0.75
vertex 68.4667842233645 -61.9178139643628 0.75
endloop
endfacet
facet normal -0.936602148665016 0.313702236705037 0.156100358110839
outer loop
vertex 69.6617795709814 -62.4999999999993 6.75
vertex 68.4667842233645 -63.082186035636 0.75
vertex 69.4667842233645 -63.082186035636 6.75
endloop
endfacet
facet normal -0.936602148664984 -0.313702236705136 0.156100358110834
outer loop
vertex 68.4667842233645 -61.9178139643628 0.75
vertex 69.6617795709814 -62.4999999999993 6.75
vertex 69.4667842233645 -61.9178139643628 6.75
endloop
endfacet
facet normal 0.209470160329052 0.977191601271977 -0.0349116933881745
outer loop
vertex 67.9 -63.7840981443057 6.75
vertex 66.9 -63.7840981443057 0.75
vertex 66.9582701632188 -63.5822295449026 6.75
endloop
endfacet
facet normal -0.621336447694204 -0.776670559617741 0.103556074615701
outer loop
vertex 65.7349364905389 -63.4999999999993 6.75
vertex 64.7349364905389 -63.4999999999993 0.75
vertex 66.65 -64.2320508075682 6.75
endloop
endfacet
facet normal 0.936602148664995 -0.313702236705103 -0.156100358110832
outer loop
vertex 66.3332157766354 -61.9178139643628 6.75
vertex 66.1382204290185 -62.4999999999993 6.75
vertex 65.3332157766354 -61.9178139643628 0.75
endloop
endfacet
facet normal -0.209470160329147 -0.977191601271957 0.0349116933881903
outer loop
vertex 67.9 -61.2159018556929 6.75
vertex 66.9 -61.2159018556929 0.75
vertex 68.8417298367812 -61.4177704550961 6.75
endloop
endfacet
facet normal 0.62133644769419 0.776670559617753 -0.103556074615698
outer loop
vertex 66.9582701632188 -63.5822295449026 6.75
vertex 65.3332157766354 -63.082186035636 0.75
vertex 66.3332157766354 -63.082186035636 6.75
endloop
endfacet
facet normal 0.621336447694195 -0.776670559617749 -0.103556074615699
outer loop
vertex 66.3332157766354 -61.9178139643628 6.75
vertex 65.3332157766354 -61.9178139643628 0.75
vertex 66.9582701632188 -61.4177704550961 6.75
endloop
endfacet
facet normal 0.0 0.0 -1.0
outer loop
vertex 69.8000000000001 -58.9999999999998 -1.25024445961241e-019
vertex 64.0 -65.9999999999998 -1.25024445961241e-019
vertex 64.0 -58.9999999999998 -1.25024445961241e-019
endloop
endfacet
facet normal 0.0 0.0 -1.0
outer loop
vertex 64.0 -65.9999999999998 -1.25024445961241e-019
vertex 69.8000000000001 -58.9999999999998 -1.25024445961241e-019
vertex 69.8000000000001 -65.9999999999998 -1.25024445961241e-019
endloop
endfacet
facet normal 0.209470160329132 -0.97719160127196 -0.0349116933881878
outer loop
vertex 66.9582701632188 -61.4177704550961 6.75
vertex 66.9 -61.2159018556929 0.75
vertex 67.9 -61.2159018556929 6.75
endloop
endfacet
facet normal 0.936602148665017 0.313702236705037 -0.156100358110836
outer loop
vertex 66.1382204290185 -62.4999999999993 6.75
vertex 66.3332157766354 -63.082186035636 6.75
vertex 65.3332157766354 -63.082186035636 0.75
endloop
endfacet
endsolid Lod5
