<?xml version="1.0" encoding="utf-8"?><!-- Generator: Iparigrafika Gear Generator by Abel Vincze http://geargenerator.com/ --><svg version="1.2" class="svggear" xmlns="http://www.w3.org/2000/svg" xmlns:xlink="http://www.w3.org/1999/xlink" x="0px" y="0px" width="200px" height="200px" viewBox="-100 -100 200 200" overflow="scroll" xml:space="preserve"><polygon id="gearpoly0" data-id="0" class="gear" fill="#ddd" stroke="#444" stroke-width="1" stroke-miterlimit="10" points="57,0 71.2914,-0.0001 71.4134,-0.0054 71.6703,-0.0273 72.0606,-0.0774 72.5821,-0.1675 73.2318,-0.3091 74.0059,-0.5134 74.8999,-0.7915 75.9087,-1.1542 77.0263,-1.612 78.2461,-2.1749 79.5608,-2.8525 80.9625,-3.6543 82.4427,-4.5888 83.9922,-5.6643 85.6013,-6.8885 87.2599,-8.2686 88.9571,-9.8108 90.6818,-11.5212 92.4223,-13.4049 94.1667,-15.4662 95.9026,-17.709 97.6173,-20.1361 97.4745,-22.3321 97.1538,-23.6882 96.2981,-25.7156 93.6779,-27.1178 91.1213,-28.3456 88.6385,-29.4074 86.2386,-30.312 83.9306,-31.0688 81.7224,-31.6877 79.6214,-32.1788 77.6344,-32.5527 75.7673,-32.8204 74.0253,-32.993 72.413,-33.082 70.934,-33.0991 69.5913,-33.0561 68.387,-32.9648 67.3226,-32.8373 66.3987,-32.6856 65.615,-32.5216 64.9708,-32.3572 64.4642,-32.2042 64.0927,-32.0742 63.8532,-31.9787 63.7418,-31.9288 50.9638,-25.5283 40.3051,-40.3051 50.4105,-50.4107 50.4931,-50.5007 50.6593,-50.6978 50.8998,-51.0093 51.2048,-51.4417 51.5641,-52.0012 51.967,-52.6931 52.4026,-53.5219 52.8594,-54.4917 53.326,-55.6057 53.7905,-56.8662 54.2409,-58.275 54.6652,-59.8331 55.0511,-61.5406 55.3862,-63.3967 55.6584,-65.4002 55.8553,-67.5488 55.9648,-69.8395 55.9749,-72.2684 55.8738,-74.8311 55.6497,-77.5222 55.2913,-80.3355 54.7875,-83.2643 53.1337,-84.7161 51.948,-85.4482 49.9093,-86.2767 47.0651,-85.4154 44.3892,-84.4759 41.8827,-83.471 39.5461,-82.4137 37.3789,-81.3169 35.3799,-80.193 33.547,-79.0547 31.8776,-77.914 30.3681,-76.7831 29.0143,-75.6734 27.8112,-74.5962 26.7533,-73.5625 25.8343,-72.5826 25.0473,-71.6666 24.3848,-70.8238 23.8388,-70.0632 23.4006,-69.3931 23.0613,-68.8213 22.8112,-68.3548 22.6405,-68.0003 22.5387,-67.7634 22.4952,-67.6493 17.9856,-54.0881 0,-57 -0.0001,-71.2914 -0.0054,-71.4134 -0.0273,-71.6703 -0.0774,-72.0606 -0.1675,-72.5821 -0.3091,-73.2318 -0.5134,-74.0059 -0.7915,-74.8999 -1.1542,-75.9087 -1.612,-77.0263 -2.1749,-78.2461 -2.8525,-79.5608 -3.6543,-80.9625 -4.5888,-82.4427 -5.6643,-83.9922 -6.8885,-85.6013 -8.2686,-87.2599 -9.8108,-88.9571 -11.5212,-90.6818 -13.4049,-92.4223 -15.4662,-94.1667 -17.709,-95.9026 -20.1361,-97.6173 -22.3321,-97.4745 -23.6882,-97.1538 -25.7156,-96.2981 -27.1178,-93.6779 -28.3456,-91.1213 -29.4074,-88.6385 -30.312,-86.2386 -31.0688,-83.9306 -31.6877,-81.7224 -32.1788,-79.6214 -32.5527,-77.6344 -32.8204,-75.7673 -32.993,-74.0253 -33.082,-72.413 -33.0991,-70.934 -33.0561,-69.5913 -32.9648,-68.387 -32.8373,-67.3226 -32.6856,-66.3987 -32.5216,-65.615 -32.3572,-64.9708 -32.2042,-64.4642 -32.0742,-64.0927 -31.9787,-63.8532 -31.9288,-63.7418 -25.5283,-50.9638 -40.3051,-40.3051 -50.4107,-50.4105 -50.5007,-50.4931 -50.6978,-50.6593 -51.0093,-50.8998 -51.4417,-51.2048 -52.0012,-51.5641 -52.6931,-51.967 -53.5219,-52.4026 -54.4917,-52.8594 -55.6057,-53.326 -56.8662,-53.7905 -58.275,-54.2409 -59.8331,-54.6652 -61.5406,-55.0511 -63.3967,-55.3862 -65.4002,-55.6584 -67.5488,-55.8553 -69.8395,-55.9648 -72.2684,-55.9749 -74.8311,-55.8738 -77.5222,-55.6497 -80.3355,-55.2913 -83.2643,-54.7875 -84.7161,-53.1337 -85.4482,-51.948 -86.2767,-49.9093 -85.4154,-47.0651 -84.4759,-44.3892 -83.471,-41.8827 -82.4137,-39.5461 -81.3169,-37.3789 -80.193,-35.3799 -79.0547,-33.547 -77.914,-31.8776 -76.7831,-30.3681 -75.6734,-29.0143 -74.5962,-27.8112 -73.5625,-26.7533 -72.5826,-25.8343 -71.6666,-25.0473 -70.8238,-24.3848 -70.0632,-23.8388 -69.3931,-23.4006 -68.8213,-23.0613 -68.3548,-22.8112 -68.0003,-22.6405 -67.7634,-22.5387 -67.6493,-22.4952 -54.0881,-17.9856 -57,0 -71.2914,0.0001 -71.4134,0.0054 -71.6703,0.0273 -72.0606,0.0774 -72.5821,0.1675 -73.2318,0.3091 -74.0059,0.5134 -74.8999,0.7915 -75.9087,1.1542 -77.0263,1.612 -78.2461,2.1749 -79.5608,2.8525 -80.9625,3.6543 -82.4427,4.5888 -83.9922,5.6643 -85.6013,6.8885 -87.2599,8.2686 -88.9571,9.8108 -90.6818,11.5212 -92.4223,13.4049 -94.1667,15.4662 -95.9026,17.709 -97.6173,20.1361 -97.4745,22.3321 -97.1538,23.6882 -96.2981,25.7156 -93.6779,27.1178 -91.1213,28.3456 -88.6385,29.4074 -86.2386,30.312 -83.9306,31.0688 -81.7224,31.6877 -79.6214,32.1788 -77.6344,32.5527 -75.7673,32.8204 -74.0253,32.993 -72.413,33.082 -70.934,33.0991 -69.5913,33.0561 -68.387,32.9648 -67.3226,32.8373 -66.3987,32.6856 -65.615,32.5216 -64.9708,32.3572 -64.4642,32.2042 -64.0927,32.0742 -63.8532,31.9787 -63.7418,31.9288 -50.9638,25.5283 -40.3051,40.3051 -50.4105,50.4107 -50.4931,50.5007 -50.6593,50.6978 -50.8998,51.0093 -51.2048,51.4417 -51.5641,52.0012 -51.967,52.6931 -52.4026,53.5219 -52.8594,54.4917 -53.326,55.6057 -53.7905,56.8662 -54.2409,58.275 -54.6652,59.8331 -55.0511,61.5406 -55.3862,63.3967 -55.6584,65.4002 -55.8553,67.5488 -55.9648,69.8395 -55.9749,72.2684 -55.8738,74.8311 -55.6497,77.5222 -55.2913,80.3355 -54.7875,83.2643 -53.1337,84.7161 -51.948,85.4482 -49.9093,86.2767 -47.0651,85.4154 -44.3892,84.4759 -41.8827,83.471 -39.5461,82.4137 -37.3789,81.3169 -35.3799,80.193 -33.547,79.0547 -31.8776,77.914 -30.3681,76.7831 -29.0143,75.6734 -27.8112,74.5962 -26.7533,73.5625 -25.8343,72.5826 -25.0473,71.6666 -24.3848,70.8238 -23.8388,70.0632 -23.4006,69.3931 -23.0613,68.8213 -22.8112,68.3548 -22.6405,68.0003 -22.5387,67.7634 -22.4952,67.6493 -17.9856,54.0881 0,57 0.0001,71.2914 0.0054,71.4134 0.0273,71.6703 0.0774,72.0606 0.1675,72.5821 0.3091,73.2318 0.5134,74.0059 0.7915,74.8999 1.1542,75.9087 1.612,77.0263 2.1749,78.2461 2.8525,79.5608 3.6543,80.9625 4.5888,82.4427 5.6643,83.9922 6.8885,85.6013 8.2686,87.2599 9.8108,88.9571 11.5212,90.6818 13.4049,92.4223 15.4662,94.1667 17.709,95.9026 20.1361,97.6173 22.3321,97.4745 23.6882,97.1538 25.7156,96.2981 27.1178,93.6779 28.3456,91.1213 29.4074,88.6385 30.312,86.2386 31.0688,83.9306 31.6877,81.7224 32.1788,79.6214 32.5527,77.6344 32.8204,75.7673 32.993,74.0253 33.082,72.413 33.0991,70.934 33.0561,69.5913 32.9648,68.387 32.8373,67.3226 32.6856,66.3987 32.5216,65.615 32.3572,64.9708 32.2042,64.4642 32.0742,64.0927 31.9787,63.8532 31.9288,63.7418 25.5283,50.9638 40.3051,40.3051 50.4107,50.4105 50.5007,50.4931 50.6978,50.6593 51.0093,50.8998 51.4417,51.2048 52.0012,51.5641 52.6931,51.967 53.5219,52.4026 54.4917,52.8594 55.6057,53.326 56.8662,53.7905 58.275,54.2409 59.8331,54.6652 61.5406,55.0511 63.3967,55.3862 65.4002,55.6584 67.5488,55.8553 69.8395,55.9648 72.2684,55.9749 74.8311,55.8738 77.5222,55.6497 80.3355,55.2913 83.2643,54.7875 84.7161,53.1337 85.4482,51.948 86.2767,49.9093 85.4154,47.0651 84.4759,44.3892 83.471,41.8827 82.4137,39.5461 81.3169,37.3789 80.193,35.3799 79.0547,33.547 77.914,31.8776 76.7831,30.3681 75.6734,29.0143 74.5962,27.8112 73.5625,26.7533 72.5826,25.8343 71.6666,25.0473 70.8238,24.3848 70.0632,23.8388 69.3931,23.4006 68.8213,23.0613 68.3548,22.8112 68.0003,22.6405 67.7634,22.5387 67.6493,22.4952 54.0881,17.9856 "/><g class="guides"><polyline fill="none" stroke="#444" stroke-width="0.5" stroke-miterlimit="10" points="10,0 -10,0"/><polyline fill="none" stroke="#444" stroke-width="0.5" stroke-miterlimit="10" points="0,10 0,-10"/></g><circle fill="#c00" class="firstmarker" stroke="none" stroke-miterlimit="10" cx="77.8532" cy="-18.4086" r="7.85"/><g class="geartext"><g class="text"><polyline fill="none" stroke="#444" stroke-width="0.5" stroke-linecap="square" stroke-miterlimit="1"  points="-23.43 -36.57 -24.56 -35.82 -25.67 -35.03 -26.75 -34.21 -27.81 -33.36 "/><polyline fill="none" stroke="#444" stroke-width="0.5" stroke-linecap="square" stroke-miterlimit="1"  points="-24.06 -32.84 -27.27 -37.22 "/><polyline fill="none" stroke="#444" stroke-width="0.5" stroke-linecap="square" stroke-miterlimit="1"  points="-24.89 -38.85 -25.33 -36.94 -25.67 -35.03 -25.91 -33.14 -26.07 -31.28 "/><polyline fill="none" stroke="#444" stroke-width="0.5" stroke-linecap="square" stroke-miterlimit="1"  points="-21.96 -34.28 -23.79 -34.7 -25.67 -35.03 -27.59 -35.28 -29.54 -35.45 "/><polyline fill="none" stroke="#444" stroke-width="0.5" stroke-linecap="square" stroke-miterlimit="1"  points="-16.36 -37.28 -16.94 -35.53 -18.04 -34.98 -19.78 -35.59 -22.42 -40.33 -21.77 -42.22 -20.44 -42.88 -18.54 -42.25 -16.36 -37.28 "/><polyline fill="none" stroke="#444" stroke-width="0.5" stroke-linecap="square" stroke-miterlimit="1"  points="-3.31 -47.38 -2.75 -39.26 -4.18 -41.18 -5.73 -43.05 -7.4 -44.86 -9.2 -46.6 -7.62 -38.61 "/><polyline fill="none" stroke="#444" stroke-width="0.5" stroke-linecap="square" stroke-miterlimit="1"  points="5.26 -44.48 3.87 -44.62 2.47 -44.72 1.07 -44.77 -0.33 -44.78 "/><polyline fill="none" stroke="#444" stroke-width="0.5" stroke-linecap="square" stroke-miterlimit="1"  points="4.94 -41.78 3.63 -41.91 2.32 -42.01 1.01 -42.06 -0.31 -42.07 "/><polyline fill="none" stroke="#444" stroke-width="0.5" stroke-linecap="square" stroke-miterlimit="1"  points="9.11 -42.46 7.54 -41.39 7.3 -40.06 8.26 -38.48 9.46 -38.2 10.65 -37.89 12.23 -38.83 12.64 -40.13 11.75 -41.81 10.44 -42.16 9.11 -42.46 8.03 -44.06 8.27 -45.4 9.97 -46.44 11.41 -46.11 12.85 -45.73 13.86 -44.01 13.46 -42.72 11.75 -41.81 "/><polyline fill="none" stroke="#444" stroke-width="0.5" stroke-linecap="square" stroke-miterlimit="1"  points="21.73 -37.6 22.89 -36.91 24.03 -36.17 25.15 -35.4 27.07 -35.68 27.89 -36.76 27.51 -38.72 26.29 -39.56 25.04 -40.37 23.76 -41.13 19.69 -34.08 "/><polyline fill="none" stroke="#444" stroke-width="0.5" stroke-linecap="square" stroke-miterlimit="1"  points="25.7 -29.81 29.24 -33.92 "/><polyline fill="none" stroke="#444" stroke-width="0.5" stroke-linecap="square" stroke-miterlimit="1"  points="30.13 -34.95 31.01 -35.98 "/><polyline fill="none" stroke="#444" stroke-width="0.5" stroke-linecap="square" stroke-miterlimit="1"  points="31.87 -25.34 30.02 -25.45 30.22 -27.28 35.26 -31.83 "/><polyline fill="none" stroke="#444" stroke-width="0.5" stroke-linecap="square" stroke-miterlimit="1"  points="35.05 -27.88 34.16 -28.96 33.24 -30.01 32.29 -31.04 31.3 -32.03 "/><polyline fill="none" stroke="#444" stroke-width="0.5" stroke-linecap="square" stroke-miterlimit="1"  points="34.83 -18.33 34.24 -19.41 33.62 -20.47 32.96 -21.51 33.39 -23.3 35.61 -24.86 37.51 -24.47 38.25 -23.29 38.96 -22.08 39.63 -20.85 "/><polyline fill="none" stroke="#444" stroke-width="0.5" stroke-linecap="square" stroke-miterlimit="1"  points="38.38 -17.23 40.16 -16.54 41.92 -15.75 42.4 -14.43 41.53 -12.7 37.64 -11.51 "/><polyline fill="none" stroke="#444" stroke-width="0.5" stroke-linecap="square" stroke-miterlimit="1"  points="35.91 -16.12 43.34 -19.45 "/><polyline fill="none" stroke="#444" stroke-width="0.5" stroke-linecap="square" stroke-miterlimit="1"  points="39.24 -3.07 39.31 -1.84 39.35 -0.61 39.35 0.61 40.67 1.91 46.09 2.16 47.49 0.74 47.49 -0.74 47.45 -2.23 47.36 -3.71 "/><polyline fill="none" stroke="#444" stroke-width="0.5" stroke-linecap="square" stroke-miterlimit="1"  points="47.45 -2.23 39.31 -1.84 "/><polyline fill="none" stroke="#444" stroke-width="0.5" stroke-linecap="square" stroke-miterlimit="1"  points="43.56 10.4 43.86 9.03 44.13 7.66 44.34 6.28 44.52 4.89 "/><polyline fill="none" stroke="#444" stroke-width="0.5" stroke-linecap="square" stroke-miterlimit="1"  points="40.92 9.77 41.21 8.49 41.45 7.2 41.66 5.9 41.82 4.59 "/><polyline fill="none" stroke="#444" stroke-width="0.5" stroke-linecap="square" stroke-miterlimit="1"  points="35.91 16.12 36.39 14.99 36.84 13.84 37.26 12.68 37.64 11.51 40.23 12.31 41.11 14 40.65 15.27 40.16 16.54 40.86 18.34 42.1 18.89 43.92 18.09 44.47 16.71 44.97 15.31 44.12 13.5 "/><polyline fill="none" stroke="#444" stroke-width="0.5" stroke-linecap="square" stroke-miterlimit="1"  points="34.82 25.96 33.99 27.03 33.13 28.08 32.23 29.1 32.29 31.04 33.27 31.98 35.26 31.83 36.23 30.71 37.18 29.57 38.08 28.39 31.55 23.52 "/><polyline fill="none" stroke="#444" stroke-width="0.5" stroke-linecap="square" stroke-miterlimit="1"  points="25.94 36.51 27.07 35.68 28.17 34.82 29.24 33.92 30.29 32.99 "/><polyline fill="none" stroke="#444" stroke-width="0.5" stroke-linecap="square" stroke-miterlimit="1"  points="24.37 34.3 25.42 33.52 26.46 32.71 27.47 31.87 28.45 30.99 "/><polyline fill="none" stroke="#444" stroke-width="0.5" stroke-linecap="square" stroke-miterlimit="1"  points="17.54 38.24 18.73 37.67 19.9 37.07 21.05 36.43 22.18 35.75 21.95 37.99 21.61 40.26 21.15 42.53 17.52 35.24 "/><polyline fill="none" stroke="#444" stroke-width="0.5" stroke-linecap="square" stroke-miterlimit="1"  points="9.11 42.46 7.78 42.73 6.44 42.95 5.1 43.13 3.87 44.62 3.98 45.97 5.58 47.17 7.05 46.97 8.51 46.73 9.97 46.44 8.26 38.48 "/><polyline fill="none" stroke="#444" stroke-width="0.5" stroke-linecap="square" stroke-miterlimit="1"  points="0.94 39.35 1.01 42.06 -0.33 44.78 -1.83 47.46 -3.12 44.68 -4.25 41.86 -3.97 39.16 "/><polyline fill="none" stroke="#444" stroke-width="0.5" stroke-linecap="square" stroke-miterlimit="1"  points="1.01 42.06 -0.31 42.07 -1.62 42.04 -2.94 41.97 -4.25 41.86 "/><polyline fill="none" stroke="#444" stroke-width="0.5" stroke-linecap="square" stroke-miterlimit="1"  points="-12.75 42.93 -11.4 43.31 -10.04 43.65 -8.67 43.94 -7.29 44.19 "/><polyline fill="none" stroke="#444" stroke-width="0.5" stroke-linecap="square" stroke-miterlimit="1"  points="-11.97 40.33 -10.71 40.69 -9.43 41 -8.14 41.28 -6.85 41.51 "/><polyline fill="none" stroke="#444" stroke-width="0.5" stroke-linecap="square" stroke-miterlimit="1"  points="-18.04 34.98 -16.94 35.53 -15.82 36.04 -14.68 36.52 -13.54 36.96 -14.47 39.51 -16.2 40.29 -17.45 39.77 -18.69 39.2 -20.53 39.81 -21.15 41.01 -20.44 42.88 -19.09 43.5 -17.72 44.07 -15.87 43.33 "/><polyline fill="none" stroke="#444" stroke-width="0.5" stroke-linecap="square" stroke-miterlimit="1"  points="-24.36 40.78 -25.63 39.99 -26.86 39.17 -28.07 38.32 -29.26 37.42 -25.67 35.03 -22.26 32.46 "/></g></g><g class="guides gearguides" opacity="0.2"><circle class="pitch" fill="none" stroke="#f00" stroke-miterlimit="10" cx="0" cy="0" r="80"/><circle class="outer" fill="none" stroke="#ccc" stroke-miterlimit="10" stroke-dasharray="2,2" cx="0" cy="0" r="100"/><circle class="base" fill="none" stroke="#00f" stroke-miterlimit="10" stroke-dasharray="2,2" cx="0" cy="0" r="71.28"/></g></svg>